<?xml version="1.0" encoding="UTF-8"?>
<svg id="Layer_2" data-name="Layer 2" xmlns="http://www.w3.org/2000/svg" viewBox="0 0 795.53 795.53">
  <defs>
    <style>
      .cls-1 {
        fill: #3a9e00;
      }

      .cls-1, .cls-2 {
        stroke-width: 0px;
      }

      .cls-2 {
        fill: #f2f7df;
      }
    </style>
  </defs>
  <g id="Layer_1-2" data-name="Layer 1">
    <g>
      <circle class="cls-1" cx="397.76" cy="397.76" r="397.76"/>
      <path class="cls-2" d="M298.37,634c-38.04-38.04-57.27-87.74-57.73-137.57,0-.48-.2-.94-.54-1.29l-.07-.07c-.35-.35-.81-.54-1.3-.54h-78.29c0-53.8,21.55-102.54,56.46-138.1.34-.34.53-.81.53-1.29v-.1c0-.49-.19-.96-.54-1.3l-55.36-55.36c38.04-38.04,87.74-57.27,137.57-57.73.48,0,.94-.2,1.29-.54l.07-.07c.35-.35.54-.81.54-1.3v-78.29c53.8,0,102.54,21.55,138.1,56.46.34.34.81.53,1.29.53h.1c.49,0,.96-.19,1.3-.54l55.36-55.36c38.04,38.04,57.27,87.74,57.73,137.57,0,.48.2.94.54,1.28l.07.07c.35.35.81.54,1.3.54h78.29c0,53.8-21.55,102.54-56.46,138.1-.34.34-.53.81-.53,1.29v.1c0,.49.19.96.54,1.3l55.36,55.36c-38.04,38.04-87.74,57.27-137.57,57.73-.48,0-.94.2-1.28.54l-.07.07c-.35.35-.54.81-.54,1.3v78.29c-53.8,0-102.54-21.55-138.1-56.46-.34-.34-.81-.53-1.29-.53h-.1c-.49,0-.96.19-1.3.54l-55.36,55.36ZM493.99,554.34h0c.35-.35.54-.81.54-1.3v-78.3c29.37.02,58.75-10.99,81.43-32.98.36-.35.56-.83.56-1.32h0c0-.49-.19-.96-.54-1.3l-55.37-55.36c20.78-20.76,33.77-49.31,34.26-80.9,0-.5-.19-.98-.54-1.33h0c-.35-.35-.81-.54-1.3-.54h-78.3c.02-29.37-10.99-58.75-32.98-81.43-.35-.36-.83-.56-1.32-.56h0c-.49,0-.96.19-1.3.54l-55.37,55.37c-20.76-20.78-49.32-33.77-80.9-34.26-.5,0-.98.19-1.33.54h0c-.35.35-.54.81-.54,1.3v78.3c-29.37-.02-58.75,10.99-81.43,32.98-.36.35-.56.83-.56,1.32h0c0,.49.19.96.54,1.3l55.37,55.36c-20.78,20.76-33.77,49.31-34.27,80.9,0,.5.19.98.54,1.33h0c.35.35.81.54,1.3.54h78.3c-.02,29.37,10.99,58.75,32.98,81.43.35.36.83.56,1.32.56h0c.49,0,.96-.19,1.3-.54l55.36-55.37c20.76,20.78,49.32,33.77,80.9,34.26.5,0,.98-.19,1.33-.54Z"/>
    </g>
  </g>
</svg>