<?xml version="1.0" encoding="UTF-8"?>
<svg id="Layer_2" data-name="Layer 2" xmlns="http://www.w3.org/2000/svg" viewBox="0 0 768.89 200.42">
  <defs>
    <style>
      .cls-1 {
        fill: #3a9e00;
        stroke-width: 0px;
      }
    </style>
  </defs>
  <g id="Layer_1-2" data-name="Layer 1">
    <g>
      <path class="cls-1" d="M192.19,85.16c0-6.21-1.38-11.12-4.47-16.03-3.08-4.9-6.84-8.17-12.04-10.85-6.22-3.2-13.65-4.08-20.62-4.13-2.71-.02-10.89.35-20.69,4.2-8.5,3.33-16.11,9.21-17.57,10.34,3.12,3.8,6.26,7.59,9.42,11.35,3.9-3.04,8.51-6.36,12.95-8.28,5.03-2.18,9.42-3.43,14.84-3.49,6.12-.07,12.21,1.21,17.21,4.83,4.06,2.93,5.44,6.57,5.44,9.96s-1.83,5.81-4.78,7.3c-6.91,3.49-19.3,5.44-25.6,6.55-8.66,1.53-17.25,3.83-22.79,8.24-4.66,3.71-8.28,10.18-8.2,16.85.1,7.08,3.17,13.32,9.04,18.19,5.87,4.87,12.86,6.94,21.05,7.03,6.12.07,11.98-.78,17.56-3.41,5.05-2.38,8.84-5.79,11.71-9.43q1.08.39,2.15.77c0,3.36-.02,6.46-.02,10.14,5.14,0,15.41-.03,15.41-.03v-60.1ZM176.76,107.29c-.13,5.54-1.16,10.36-4.14,14.52-3.21,4.48-6.43,7.16-11,9.72-4.57,2.57-10.12,3.4-15.04,3.44-4.19.03-8.49-1.39-11.33-3.17-3.31-2.08-5.07-5.08-5.07-8.92,0-10.03,11.07-12.64,19.41-14.08,8.23-1.42,20.35-4.8,27.15-6.96,0,1.38.06,4.33.03,5.45Z"/>
      <path class="cls-1" d="M29.46,56.27c3.85-3.9,8.43-6.95,13.66-9.16,5.22-2.2,11.29-3.28,17.45-3.28,6.71,0,13.22,1.31,19.39,4,6.16,2.7,11.86,6.34,16.15,11.51l11-11.31c-3.63-4.18-7.9-7.76-12.79-10.73-4.9-2.97-10.23-5.25-16.01-6.85-5.78-1.59-11.69-2.39-17.74-2.39-8.47,0-16.39,1.51-23.76,4.54-7.37,3.03-13.84,7.26-19.39,12.71-5.56,5.45-9.85,11.77-12.87,18.98-3.03,7.21-4.54,14.99-4.54,23.35s1.51,16.15,4.54,23.35c3.02,7.21,7.32,13.53,12.87,18.98,5.55,5.45,11.99,9.68,19.31,12.71,7.32,3.02,15.27,4.54,23.85,4.54,5.83,0,11.58-.8,17.25-2.39,5.67-1.59,10.95-3.9,15.84-6.93,4.89-3.02,9.27-6.57,13.12-10.64l-10.92-11.08c-4.18,4.95-9.4,8.59-15.39,11.29-6,2.7-12.69,4.18-19.4,4.18-6.16,0-11.98-1.29-17.26-3.5-5.28-2.2-10.13-5.41-14.09-9.37-3.96-3.96-6.97-8.63-9.12-13.91-2.15-5.28-3.28-11.05-3.28-17.21s1.06-12.11,3.21-17.39c2.15-5.28,5.09-10.08,8.94-13.99Z"/>
      <path class="cls-1" d="M757.37,56.81l-16.69-3.88c-.08.19-10.29,26.06-20.61,44.84-18.37,33.48-24.62,37.02-28.46,36.25-6.81-1.37-2.64-29.1,1.86-45.27l-13.55-3.14c-.08.12-7.74,12.6-17.75,24.99-18.38,22.74-21.94,23.91-24.89,23.19-2.85-.69-5.45-5.53,4.9-36.06,6.06-17.89,16.88-40.83,16.96-40.99l-16.68-3.88c-.3.22-18.92,17-42.25,28.97-.88-4.7-2.55-9.13-5.01-13.13-5.92-9.65-15.49-15.76-26.27-15.76-13.96,0-24.78,5.75-32.85,14.41-5.82,6.24-8.76,13.5-8.27,20.44.43,6.19,3.38,11.46,8.52,15.26,10.36,7.64,26.71,7.39,37.57,4.85,2.95-.69,5.98-1.57,9.07-2.61-.42.99-.89,1.98-1.39,2.98-11.53,22.68-23.47,26.06-32.85,26.06-6.23,0-12.15-3.08-15.53-7.39-3.75-4.78-5.53-11.86-3.63-19.53l-11.2-9.07c-18.19,25.27-43.23,40.37-53.8,35.13-2.24-1.11-4.05-3.95-4.9-8.81,1.03-.76,2.07-1.57,3.11-2.41,14.2-11.61,32.48-33,41.61-48.71,23.56-40.55,22.58-55.08,19.79-62.48-1.85-4.92-5.5-8.43-10.55-10.14-3.29-1.11-8.57-1.75-15.1,1.51-19.77,9.81-38.26,49.04-44.12,66.51-6.53,19.46-9.87,35.47-10.03,47.94-14.76,7.42-24.27-1.19-26.38-2.99-2.6-8.14-5.89-15.66-9.66-21.7l-.07-.11c-.09-.12-1.45-2.21-3.58-4.98,1.14-2.62,2.33-5.18,3.54-7.69,6.67-.06,14.26.21,22.43,1.1l1.58-14.62c-5.72-.62-11.17-.97-16.25-1.12,13.17-22.76,26.7-37.44,26.88-37.63l-7.53-12.05c-.23.08-24.05,7.21-52.8,5.2l-1.04,14.67c13.38.94,25.65.1,35.45-1.2.37.62.4.67.77,1.29-5.68,7.86-12.34,18.02-18.66,29.91-12.32.65-20.1,2.19-20.65,2.3l2.92,14.41c.1-.02,3.88-.76,10.3-1.39-.82,1.88-1.64,3.77-2.42,5.71-3.6,8.9-6.67,20.74-8.63,32.85-3.65,8.25-6.81,14.52-13.56,14.52-4.12,0-7.62-3.14-7.62-7.83v-36.45c0-6.38-.1-14.93-2.34-20.27-2.34-5.59-4.85-8.53-8.48-10.89-3.36-2.18-7.68-3.84-14.06-3.84-8.6,0-16.33,3.44-20.7,6.84-3.45,2.69-6.53,6.7-9.51,11.75-1.2-.32-1.07-.28-2.27-.6V28.11h-15.35v117.16h15.35v-40.62c0-6.83,1.22-9.45,3.15-13.82,2.11-4.77,4.66-8.59,7.32-11.6,4.28-4.85,8.87-7.62,12.43-8.96,4.43-1.66,11.15-1.8,15.68,2.94,3.73,3.9,3.27,13.41,3.27,20.78v34.1c0,9.52,5.17,20.63,19.58,20.63,6,0,11.02-1.79,14.7-5.46-1,13.04,1.51,37.97,6.79,46.73,4.64,7.7,11.35,9.85,15.78,10.3.72.08,1.44.11,2.15.11,6.7,0,12.87-3.32,16.72-9.51,6.39-10.28,5.88-41.06,2.84-58.84,6.66,1.63,14.81,3.39,23.84-.03,2.12,6.89,6.05,11.76,11.77,14.59,3.9,1.93,7.92,2.79,12,2.79,15.79,0,32.4-12.93,45.65-26.78.53.15.63.17,1.16.32,1.19,4.77,3.23,9.23,6.07,13.14,5.99,8.22,16.13,12.92,25.81,12.92,8.95,0,30.3-3.32,45.96-34.11,2.8-5.52,4.67-11.17,5.6-16.74,10.37-4.89,21-10.95,31.89-19.73,1.14.89.95.74,2.09,1.62-1.77,3.75-3.85,8.12-4.7,10.3-13.65,35.04-9.04,45.32-5.52,50.91,2.92,4.65,7.76,7.21,13.62,7.21,5.43,0,13.24-2.52,29.04-20.44,2.11-2.39,7.42-8.84,7.74-9.25-.3,9.29-.15,18.39,4.45,23.93,3.51,4.22,8.68,6.45,14.49,5.74,10.81-1.33,18.92-5.95,39.63-43.73,4.73-8.62,11.07-23.8,14.53-31.39l1.37.32c3.28,4.72,9.36,12.07,13.16,14.44l6.79-13.21c-4.05-3.37-9.05-12.32-11.51-18.09ZM468.36,73.59c7.57-22.58,24.52-51.96,36.71-58.02,1.17-.58,2.17-.87,2.98-.87.32,0,.61.04.87.13.95.32,1.25.7,1.5,1.38.94,2.51,2.39,13.54-18.75,49.91-6.85,11.78-19.85,27.65-31.42,38.68,1.32-8.35,3.88-18.68,8.1-31.22ZM407.1,183.14c-1.61,2.59-6.4,4.85-9.55-.73-6.52-11.51-5.18-54.62.98-77.76,11.19,21.77,15.15,67.93,8.58,78.49ZM570.57,93.57c-9.65,2.26-20.61,1.24-25.49-2.37-1.65-1.22-2.45-2.59-2.58-4.45-.2-2.74,1.44-6.25,4.35-9.39,5.34-5.73,12.02-10.6,22.1-10.6,6.74,0,11.53,4.42,14.3,9.52,1.95,3.59,2.76,7.67,3.01,12.06-5.42,2.25-10.73,4.07-15.68,5.22Z"/>
      <path class="cls-1" d="M270.13,102.07c-4.58-4.17-11.34-6.9-20.26-8.19l-14.48-2.29c-5.29-.7-9.08-1.97-11.37-3.79-2.29-1.82-3.44-4.38-3.44-7.67,0-3.64,1.64-6.61,4.93-8.9,3.29-2.29,7.64-3.44,13.04-3.44,4.7,0,7.63.77,12.28,2.29,4.64,1.53,8.88,3.83,12.95,7.22l8.99-11.63c-4.84-4.06-9.87-6.93-15.86-8.81-5.99-1.88-10.49-2.82-16.95-2.82-7.05,0-13.22,1.15-18.5,3.44-5.29,2.29-9.4,5.46-12.33,9.52-2.94,4.05-4.41,8.78-4.41,14.18,0,7.05,2.23,12.69,6.7,16.92,4.46,4.23,11.16,6.99,20.09,8.28l14.48,2.29c4.93.7,8.57,2,10.92,3.88,2.35,1.88,3.52,4.47,3.52,7.75,0,3.99-2,7.23-5.99,9.69-3.99,2.47-7.43,3.7-13.77,3.7-5.05,0-10.02-.97-14.89-2.91-4.88-1.94-9.6-4.73-14.18-8.37l-9.69,11.63c4.93,4.23,10.78,7.49,17.53,9.78,6.75,2.29,14.01,3.44,21.76,3.44,7.16,0,11.84-1.23,17.47-3.7,5.81-2.54,10.37-6.05,13.69-10.53s4.83-9.87,4.61-15.39c-.26-6.47-2.54-11.66-6.85-15.58Z"/>
    </g>
  </g>
</svg>